<?xml version="1.0" standalone="no"?>
<!DOCTYPE svg PUBLIC "-//W3C//DTD SVG 20010904//EN"
 "http://www.w3.org/TR/2001/REC-SVG-20010904/DTD/svg10.dtd">
<svg version="1.0" xmlns="http://www.w3.org/2000/svg"
 width="1280.000000pt" height="1280.000000pt" viewBox="0 0 1280.000000 1280.000000"
 preserveAspectRatio="xMidYMid meet">
<metadata>
Created by potrace 1.15, written by Peter Selinger 2001-2017
</metadata>
<g transform="translate(0.000000,1280.000000) scale(0.100000,-0.100000)"
fill="#e91e63" stroke="none">
<path d="M6140 12793 c-1562 -57 -2923 -614 -4054 -1659 -1118 -1032 -1788
-2263 -2005 -3681 -54 -353 -75 -641 -75 -1053 0 -412 21 -700 75 -1053 207
-1353 816 -2518 1845 -3527 981 -963 2115 -1539 3421 -1739 551 -85 1175 -101
1738 -45 1495 147 2816 790 3906 1901 1015 1034 1609 2273 1763 3678 31 285
40 448 40 785 0 337 -9 500 -40 785 -154 1405 -748 2644 -1763 3678 -1315
1340 -2971 1999 -4851 1930z"/>
</g>
</svg>
